# xmcd
#
# Track frame offsets:
#	150
#	21185
#	51025
#	57537
#	74270
#	98120
#	125210
#	146640
#	154710
#	180227
#	200648
#	212677
#	234885
#	252060
#	271345
#
# Disc length: 4440 seconds
#
# Revision: 0
# Processed by: cddbd v1.4PL0 Copyright (c) Steve Scherf et al.
# Submitted via: EasyCDDAExtractor 4.6.9.1
#
DISCID=d611560f
DTITLE=ethan daniel davidson - THIS MACHINE KILLS FASCISTS
DYEAR=1900
DGENRE=
TTITLE0=Ain't No More Cane On The Brazos
TTITLE1=There Were Roses
TTITLE2=How I Got a Job at an IRA Bar
TTITLE3=Wind That Shakes The Barley
TTITLE4=Before The Angel Comes
TTITLE5=Highway Patrolman
TTITLE6=Dark as a Dungeon
TTITLE7=The Gipper, Ronald Reagan and Calumet, MI
TTITLE8=1913 Massacre
TTITLE9=Working Class Hero
TTITLE10=I Ain't Marchin' Anymore
TTITLE11=How I Ended Up In Wiseman, AK
TTITLE12=The Frozen Lumberjack
TTITLE13=The Great Compromise
TTITLE14=And The Band Played Waltzing Matilda
EXTD=
EXTT0=
EXTT1=
EXTT2=
EXTT3=
EXTT4=
EXTT5=
EXTT6=
EXTT7=
EXTT8=
EXTT9=
EXTT10=
EXTT11=
EXTT12=
EXTT13=
EXTT14=
PLAYORDER=
